<?xml version="1.0" encoding="UTF-8"?>
<svg width="8923px" height="5339px" viewBox="0 0 8923 5339" version="1.1" xmlns="http://www.w3.org/2000/svg" xmlns:xlink="http://www.w3.org/1999/xlink">
    <!-- Generator: Sketch 49.1 (51147) - http://www.bohemiancoding.com/sketch -->
    <title>Fill 1 Copy 6</title>
    <desc>Created with Sketch.</desc>
    <defs></defs>
    <g id="Page-1" stroke="none" stroke-width="1" fill="none" fill-rule="evenodd">
        <path d="M8130.05102,2988.40273 C8123.15117,3064.70537 8108.95146,3304.11367 8099.75165,3370.21596 C8091.15183,3446.21859 8052.85262,3682.92679 8046.35275,3797.53076 C8041.15286,3865.63312 8027.15315,4009.03809 8019.9533,4117.24184 C8015.55339,4207.04495 8015.75339,4207.04495 8007.75355,4258.74674 C8004.75361,4278.54742 7881.95615,4242.24617 7814.55754,4204.04484 C7690.26011,4133.5424 7640.06115,4102.84134 7512.06379,4028.43876 C7452.26503,3993.53755 7313.1679,3915.03483 7237.46946,3870.13327 C7178.27069,3835.03206 7090.6725,3789.9305 7030.17374,3757.62938 C6946.07548,3712.72782 6904.17635,3675.12652 6818.57812,3632.72505 C6729.27996,3588.52352 6516.38436,3464.11921 6483.48504,3437.21828 C6547.78371,3397.61691 6555.18356,3391.41669 6611.48239,3360.41562 C6693.08071,3315.61406 6808.37833,3246.21166 6886.07672,3199.91006 C7023.97387,3117.70721 7164.27097,3032.30425 7252.66915,2982.80254 C7346.66721,2930.10071 7476.96452,2843.39771 7577.26244,2772.89526 C7707.85975,2664.79152 7699.15993,2679.99205 7802.1578,2599.78927 C7880.95617,2528.38679 7990.05392,2437.38364 8036.35296,2398.5823 C8093.15179,2350.98065 8207.84942,2257.77742 8235.44885,2227.97639 C8242.7487,2265.8777 8190.94977,2547.68746 8182.34994,2604.08942 C8175.75008,2646.79089 8148.75064,2827.19714 8130.05102,2988.40273 Z M2500.83731,2361.59101 C2593.93538,2412.19277 2640.13443,2569.0982 2627.1347,2645.30084 C2616.73491,2706.80297 2575.43577,2939.41103 2421.63894,3096.61648 C2363.44015,3152.91843 2324.44095,3189.01968 2257.14234,3203.52018 C2102.04555,3237.22135 1994.74776,3200.92009 1910.94949,3145.11816 C1852.25071,3106.11681 1790.15199,3052.01493 1746.0529,2986.91268 C1720.35343,2948.81136 1665.65456,2860.6083 1649.1549,2765.90502 C1633.65522,2677.00194 1646.75495,2565.69809 1700.75384,2474.59493 C1785.65208,2331.38997 1909.44952,2232.78655 2077.74605,2226.08632 C2162.04431,2222.6862 2249.2425,2261.78756 2333.04077,2288.38848 C2390.93958,2306.68911 2447.23841,2332.49001 2500.83731,2361.59101 Z M5046.31473,4038.83912 C4930.51712,4138.84258 4781.02021,4259.44676 4644.42303,4338.64951 C4526.12547,4407.35189 4455.42693,4439.05298 4295.83023,4503.95523 C4216.63186,4536.15635 4014.03605,4579.55785 3930.73777,4599.45854 C3777.64093,4636.05981 3714.94223,4640.15995 3559.54544,4661.36069 C3398.74876,4683.36145 3234.65215,4687.7616 3071.95551,4688.16161 C2955.65791,4688.36162 2768.66178,4692.16175 2674.56372,4686.46155 C2580.56566,4680.76136 2372.16997,4651.86036 2261.97224,4633.45972 C2098.07563,4605.95877 2073.87613,4593.05832 1950.87867,4571.65758 C1870.98032,4557.8571 1790.58198,4541.85655 1713.78357,4516.75568 C1632.38525,4489.95475 1346.49115,4362.95035 1289.19234,4324.74902 C1218.4938,4277.7474 1150.99519,4223.74553 1090.09645,4164.64348 C1000.09831,4077.44046 909.200186,3989.1374 832.701766,3890.53398 C639.505757,3641.22534 622.306113,3321.41427 657.705381,3052.00493 C678.804946,2890.89935 768.303097,2685.99225 836.701684,2540.48721 C895.200475,2416.38291 945.399438,2351.88068 1018.29793,2236.17667 C1091.89641,2119.37262 1177.29465,2008.26877 1269.69274,1905.66522 C1352.99102,1813.36202 1449.58902,1731.8592 1546.78702,1653.75649 C1589.98612,1619.05529 1611.18569,1591.05432 1686.18414,1543.55268 C1792.48194,1476.15034 1849.68076,1528.05214 1960.97846,1581.95401 C2059.07643,1629.35565 2165.67423,1698.45804 2245.07259,1737.7594 C2333.57076,1781.56092 2452.36831,1865.36382 2547.46634,1914.96554 C2605.76514,1945.3666 2835.2604,2080.37127 2901.85902,2122.37273 C2949.05805,2152.07376 3542.84578,2486.38534 3571.54519,2502.5859 C3641.14375,2541.88726 3749.84151,2607.88955 3817.8401,2649.49099 C3911.03818,2706.59297 4381.22846,2967.50201 4461.6268,3011.80354 C4554.82488,3063.30532 4751.22082,3190.90974 4790.02002,3213.01051 C4870.81835,3259.0121 5012.61542,3335.71476 5092.31378,3383.91643 C5172.41212,3432.31811 5240.71071,3479.51974 5314.30919,3534.42164 C5365.50813,3572.62297 5185.21186,3918.83496 5046.31473,4038.83912 M8906.83498,1621.45537 C8879.43554,1560.45326 8688.33949,1324.24508 8622.24086,1295.64409 C8590.64151,1281.84361 8492.54354,1273.64333 8443.84454,1314.04472 C8393.14559,1356.14618 8253.14848,1454.14958 8204.74948,1501.65122 C8157.45046,1548.15283 8004.55362,1669.15703 7882.95613,1777.46078 C7808.05768,1830.96263 7558.76283,2020.4692 7489.36426,2080.97129 C7430.96547,2126.77288 7401.86607,2153.17379 7353.66706,2182.57481 C7303.2681,2213.27588 7206.7701,2277.87811 7138.07152,2327.47983 C7103.57223,2352.3807 6942.67555,2460.78445 6849.27748,2514.48631 C6777.97895,2555.48773 6579.18306,2670.69172 6490.98488,2719.69342 C6441.6859,2747.09437 6310.48861,2824.49705 6206.79075,2868.39857 C6102.6929,2912.4001 6052.49394,2940.50107 6015.99469,2936.30092 C6015.99469,2936.30092 5988.99525,2834.6974 5972.1956,2778.49546 C5950.99604,2707.39299 5928.4965,2644.79083 5916.89674,2602.38936 C5891.19727,2507.48607 5869.59772,2466.68466 5843.59826,2374.28145 C5810.79893,2257.1774 5769.29979,2153.4738 5725.4007,2046.5701 C5662.402,1893.16479 5518.70497,1611.95505 5424.80691,1456.04964 C5369.20806,1363.84645 5257.91035,1254.34266 5194.01167,1179.54007 C5139.5128,1115.53785 5046.51472,1029.73488 4953.01665,953.332229 C4901.01773,910.93076 4775.72032,836.028165 4708.7217,791.226613 C4624.22344,746.425061 4489.92622,678.922722 4392.62823,651.421769 C4313.12987,629.020993 4162.93297,588.319583 4066.73496,569.018915 C4019.43594,559.518586 3878.03886,545.118087 3801.24045,538.317851 C3726.24199,531.717623 3520.44625,511.71693 3428.34815,510.116874 C3312.65054,508.116805 3157.45374,493.916313 3053.65589,498.616476 C3022.45653,500.116528 2884.35939,502.516611 2775.86163,515.817072 C2694.36331,525.817418 2410.36918,574.119091 2357.77026,586.919535 C2222.07307,619.820675 2078.57603,683.022864 2060.8764,690.523124 C2021.9772,706.923692 1907.57956,768.425823 1867.48039,772.425961 C1829.28118,776.12609 1780.28219,752.725279 1743.98294,737.324745 C1671.18445,706.323671 1577.68638,668.222351 1505.58787,636.021236 C1363.99079,572.61904 1308.59194,516.817106 1167.79484,451.814854 C1072.69681,407.81333 990.798501,338.910943 895.900461,294.409402 C817.602078,257.608127 730.103886,200.806159 653.805462,159.904742 C584.2069,122.403443 511.308405,90.602341 442.609825,51.400983 C411.210473,33.5003629 363.111467,22.2999749 342.011903,15.3997358 C305.912648,2.39928543 324.71226,-6.80103329 225.014319,6.49942747 C96.316978,36.0004495 -6.48089849,249.707853 0.318961044,334.21078 C4.11888255,382.212443 -7.58087577,411.013441 61.0177072,493.616303 C72.2174758,507.11677 154.31578,557.318509 203.514764,591.219684 C317.712405,669.92241 419.810296,720.224153 535.207912,796.726803 C621.706125,854.028788 704.604413,899.330358 797.402496,946.531993 C899.600385,998.533794 924.399872,1022.53463 1027.39774,1073.13638 C1041.89745,1080.23662 1100.49623,1110.33767 1114.79594,1123.03811 C1006.89817,1203.7409 826.001905,1394.64752 796.402516,1438.34903 C718.704121,1540.95259 641.005726,1631.95574 576.707055,1731.55919 C483.908971,1875.26417 421.51026,1956.26697 323.012295,2159.87403 C231.514185,2349.08058 192.214997,2535.38704 124.416398,2779.09548 C83.2172486,2927.30061 71.3174944,3084.50606 50.0179344,3238.31139 C42.2180955,3294.61334 50.1179323,3485.71996 57.5177795,3542.32192 C75.4174097,3678.52664 147.815914,3874.33342 163.615588,3916.23487 C217.614472,4059.83985 448.909694,4363.75038 477.20911,4404.25178 C540.107811,4494.15489 810.102233,4742.96351 859.401215,4772.06452 C973.998848,4839.76687 1030.39768,4870.26792 1058.99709,4889.96861 C1171.59477,4943.57046 1199.79418,4956.97093 1338.09133,5022.87321 C1371.09064,5043.77393 1675.08437,5136.07713 1707.88369,5145.57746 C1747.88286,5157.27787 1936.57896,5198.7793 2039.37684,5218.07997 C2164.87425,5241.58079 2276.97193,5264.08157 2343.17056,5274.48193 C2415.56907,5285.88232 2651.56419,5326.58373 2787.46139,5332.58394 C2945.05813,5339.48418 3267.35147,5341.08423 3342.74992,5336.08406 C3421.24829,5330.78388 3529.74605,5332.18392 3568.44525,5328.98381 C3715.44222,5316.48338 3927.33784,5303.98295 4007.43619,5291.48251 C4096.23435,5277.58203 4244.73128,5246.28095 4487.32627,5169.67829 C4557.72482,5147.47753 4857.81862,5030.07346 4868.11841,5025.17329 C4935.31702,4993.7722 5048.11469,4938.8703 5082.01399,4917.56956 C5275.50999,4795.86535 5289.20971,4802.56558 5413.00715,4667.5609 C5470.70596,4604.55872 5488.80558,4588.05815 5506.90521,4562.65727 C5620.20287,4403.55175 5659.20207,4380.45095 5730.3006,4259.04675 C5783.99949,4167.34357 5833.19847,4033.23893 5872.49766,3933.73548 C5888.29733,3893.63409 5885.89738,3871.63333 5927.09653,3896.53419 C5996.09511,3938.23563 6075.49347,3976.13695 6142.59208,4020.63849 C6209.89069,4065.34004 6311.88858,4129.24225 6381.98713,4166.44354 C6500.58468,4229.34572 6709.88036,4356.75013 6717.08021,4360.15025 C6801.07848,4399.95163 6831.57785,4427.65259 6902.07639,4466.75394 C6958.67522,4498.15503 7057.47318,4549.2568 7113.17203,4584.25801 C7213.86995,4647.76021 7215.46992,4638.45989 7317.66781,4699.66201 C7356.667,4722.86282 7437.86532,4770.86448 7477.5645,4792.76524 C7555.66289,4835.86673 7652.56089,4896.66884 7728.15933,4943.97048 C7798.85787,4988.27201 7872.25635,5026.97335 7952.45469,5081.47524 C8046.55275,5145.37745 8209.24939,5186.67888 8281.64789,5158.57791 C8318.34713,5142.37735 8438.24466,5084.17533 8497.84343,5031.57351 C8562.34209,4978.07166 8615.241,4940.47035 8625.0408,4849.56721 C8635.74058,4723.16283 8639.04051,4669.66097 8645.94037,4579.75786 C8649.84029,4529.55612 8659.34009,4444.35317 8665.93995,4216.54528 C8680.43966,4040.83919 8687.33951,3980.33709 8690.93944,3912.03473 C8698.13929,3770.92984 8705.03915,3735.52861 8718.53887,3590.9236 C8736.63849,3419.01765 8740.53841,3307.51378 8760.438,3105.10677 C8786.93746,2894.89949 8793.13733,2834.6974 8813.03692,2690.59241 C8834.73647,2530.18686 8869.03576,2233.47658 8878.83556,2150.87371 C8897.13518,1997.5684 8949.1341,1715.75864 8906.83498,1621.45537" id="Fill-1-Copy-6" fill="#000000"></path>
    </g>
</svg>