<?xml version="1.0" encoding="UTF-8"?>
<svg width="14653px" height="3490px" viewBox="0 0 14653 3490" version="1.1" xmlns="http://www.w3.org/2000/svg" xmlns:xlink="http://www.w3.org/1999/xlink">
    <!-- Generator: Sketch 49.1 (51147) - http://www.bohemiancoding.com/sketch -->
    <title>Combined Shape</title>
    <desc>Created with Sketch.</desc>
    <defs></defs>
    <g id="Page-1" stroke="none" stroke-width="1" fill="none" fill-rule="evenodd">
        <path d="M2272.87454,1227.70928 C2282.37458,979.703853 2455.97527,865.701359 2570.07572,846.500939 C2649.37603,833.200648 2703.37625,830.800595 2774.77653,853.301088 C2823.17672,868.601422 2855.47685,888.101849 2899.87703,941.603019 C2942.9772,993.404153 2957.77726,1055.2055 2965.97729,1094.80637 C2976.57733,1145.40748 2970.97731,1217.60906 2972.47732,1282.61048 C2973.77732,1334.71162 2966.87729,1405.01316 2965.17729,1454.21423 C2957.47726,1681.1192 2957.07725,1583.61706 2966.17729,1810.32202 C2970.37731,1916.12434 2974.07732,1953.62516 2996.07741,2053.42734 C3021.57751,2169.42988 3029.67754,2216.73091 3090.87778,2320.43318 C3117.17789,2364.83415 3200.27822,2407.8351 3283.27855,2397.63487 C3385.67895,2385.0346 3405.27903,2281.23233 3422.5791,2188.93031 C3445.37919,2067.62765 3451.57922,1976.82567 3470.47929,1854.823 C3499.2794,1669.61895 3483.87934,1488.61499 3471.07929,1297.71081 C3462.77926,1172.60807 3431.47914,1078.50601 3415.67907,991.90412 C3391.67898,859.901232 3346.3788,764.699149 3385.57895,630.196207 C3400.67901,578.395074 3445.07919,511.993621 3524.1795,477.392864 C3551.97961,465.292599 3590.47977,454.992374 3690.78016,448.592234 C3805.08062,441.99209 3886.38094,503.293431 3927.3811,618.89596 C3971.78128,744.098699 3988.18134,828.900554 4018.98147,991.90412 C4044.08157,1124.70703 4059.98163,1276.11034 4080.78171,1409.51326 C4101.08179,1540.11611 4106.28181,1806.72195 4106.28181,1806.72195 C4106.28181,2017.62656 4106.28181,2155.02957 4092.68176,2255.93177 C4076.6817,2375.8344 4051.7816,2456.73617 4014.38145,2554.73831 C3966.68126,2650.84041 3946.38118,2682.4411 3867.88087,2752.44263 C3803.88061,2809.44388 3747.38039,2849.34475 3652.98001,2892.84571 C3546.27959,2941.84678 3464.17927,2978.74759 3335.17875,2993.2479 C3214.27827,3006.9482 3075.57772,3003.54813 2969.3773,2985.14773 C2756.77646,2948.34692 2649.27603,2826.74426 2550.37564,2696.94142 C2419.07512,2524.63765 2360.37489,2293.33259 2309.57469,2086.92808 C2288.0746,1999.62617 2264.0745,1785.42148 2261.47449,1633.21815 C2259.27449,1508.61542 2272.87454,1227.70928 2272.87454,1227.70928 Z M2824.96673,624.106074 C2617.26591,694.407612 2220.66433,666.707006 2124.56395,660.306866 C2079.06377,657.3068 2033.36359,655.706765 1987.86341,657.006793 C1944.26324,658.20682 1919.96314,665.406977 1925.06316,727.608338 C1935.8632,861.111259 1929.16318,996.01421 1928.26317,1130.31715 C1927.56317,1222.91917 1923.66315,1315.5212 1922.76315,1408.12323 C1921.56315,1538.12607 1923.26315,1645.82843 1933.9632,1774.93125 C1945.66324,1915.33432 1946.76325,2020.33662 1958.06329,2180.04011 C1965.46332,2283.54238 1981.06338,2419.94536 1993.66343,2522.94761 C2001.66346,2588.64905 2006.36348,2614.94963 2008.86349,2677.05099 C2010.8635,2726.85207 2003.86347,2785.65336 1991.66342,2831.75437 C1972.26335,2904.35596 1918.26313,2971.05742 1856.86289,2996.65798 C1793.56264,3023.15856 1716.66233,3032.95877 1649.86207,3033.45878 C1562.56172,3034.0588 1485.06141,3016.1584 1424.26117,2985.25773 C1308.96072,2926.65645 1280.1606,2796.05359 1265.56054,2636.25009 C1247.26047,2437.14574 1251.96049,2423.64544 1244.86046,2269.44207 C1233.06042,2013.63647 1225.86039,1767.33108 1218.96036,1512.72551 C1214.46034,1346.12187 1229.6604,1179.01821 1233.36042,1012.11456 C1235.06042,934.512864 1229.2604,856.811165 1228.9604,779.109465 C1228.8604,751.408859 1207.36031,732.808452 1179.9602,737.30855 C1074.65979,754.608929 968.559366,767.809217 864.158952,789.40969 C746.058483,813.810224 548.257698,867.811405 442.65728,870.511464 C336.056857,873.311525 230.356437,864.81134 148.856114,814.010228 C84.9558606,774.109355 13.455577,697.407677 3.75553854,609.705759 C-2.04448447,557.104608 -2.94448804,470.80272 14.455581,418.501576 C39.155679,344.099948 101.155925,287.798716 161.256163,257.198047 C240.156476,216.997168 445.857292,189.896575 482.057436,182.696417 C658.858137,147.695651 811.758744,126.795194 963.259345,115.494947 C1014.55955,111.694864 1065.35975,102.494663 1116.55995,96.8945401 C1154.3601,92.7944504 1886.06301,42.2933456 1945.26324,39.29328 C2027.36357,35.1931903 2100.06385,33.4931531 2179.76417,30.793094 C2342.56482,25.2929737 2404.16506,7.79259087 2641.966,21.192884 C2663.16609,22.2929081 2684.86617,25.992989 2705.06625,32.4931312 C2754.36645,48.3934791 2840.06679,81.2941988 2883.26696,133.195334 C2926.26713,184.996467 2955.06725,227.197391 2973.56732,263.198178 C2992.26739,299.598975 3002.56743,387.700902 2991.56739,439.302031 C2980.96735,488.803114 2945.76721,583.205179 2824.96673,624.106074 Z M12064.5634,189.306562 C12230.864,198.906772 12274.6642,233.507529 12394.2647,333.009706 C12466.365,389.710946 12558.8653,526.513939 12606.4655,591.01535 C12674.5658,683.417371 12703.6659,734.818496 12766.3662,831.420609 C12838.9665,943.323057 12915.8668,1052.42544 12990.7671,1162.72786 C13019.7672,1205.42879 13042.7673,1184.42833 13064.9674,1155.92771 C13137.1676,1062.92567 13204.5679,965.623545 13282.7682,877.821624 C13374.9686,774.419362 13475.769,678.417262 13574.2694,580.615122 C13726.17,429.711821 13873.7706,273.80841 14034.4712,132.805326 C14095.4714,79.3041553 14163.3717,32.4031293 14245.372,10.402648 C14313.5723,-7.7977502 14416.6727,-4.497678 14488.873,39.5032846 C14542.0732,68.6039212 14565.7733,90.3043959 14590.2734,111.804866 C14672.0737,183.306431 14678.3738,364.210388 14582.3734,462.412536 C14508.0731,535.914144 14442.2728,618.115943 14371.2725,695.117627 C14313.3723,757.818999 14254.4721,819.720353 14193.7718,879.721666 C14108.8715,963.723503 14019.9711,1043.62525 13936.5708,1128.92712 C13839.8704,1227.72928 13738.87,1324.03139 13654.7697,1433.03377 C13535.6692,1587.33715 13423.3688,1748.14066 13322.2684,1914.74431 C13282.9682,1979.44572 13273.4682,2066.74763 13265.6681,2145.34935 C13239.968,2403.15499 13220.268,2661.66065 13200.8679,2920.0663 C13196.1679,2983.56769 13196.6679,3025.56861 13185.7678,3122.17072 C13184.8678,3129.97089 13168.0678,3283.97426 13153.9677,3358.7759 C13148.4677,3388.07654 13130.5676,3426.57738 13106.9675,3438.47764 C13058.0673,3463.27819 13020.2672,3478.87853 12948.0669,3488.57874 C12872.4666,3494.77887 12793.6663,3480.27856 12716.366,3453.17796 C12674.5658,3438.67765 12637.3657,3422.07728 12595.6655,3393.17665 C12557.2653,3361.17595 12496.3651,3289.37438 12502.7651,3219.47285 C12525.9652,2911.76612 12548.8653,2603.95939 12573.0654,2296.35266 C12583.1654,2167.14983 12596.8655,2038.24701 12607.6655,1909.14419 C12621.3656,1785.94149 12593.3655,1671.73899 12526.7652,1579.93698 C12478.465,1512.33551 12440.8649,1447.73409 12391.0647,1381.03263 C12333.8645,1304.53096 12281.0642,1224.62921 12224.964,1147.22752 C12098.2635,972.423694 11972.063,797.119859 11842.9625,624.116074 C11785.8623,547.6144 11727.562,469.212685 11764.8622,368.310478 C11778.7622,330.809657 11797.9623,311.409233 11830.8625,278.308509 C11861.6626,250.507901 11885.4627,231.507485 11903.6627,224.607334 C11960.063,203.106864 11979.363,189.306562 12064.5634,189.306562 Z M10116.7857,2048.21723 C10102.3856,1918.9144 10107.5856,1853.81298 10116.5857,1728.41023 C10119.9857,1680.80919 10129.6857,1552.10638 10130.9857,1510.10546 C10139.2857,1240.59956 10242.6862,937.99294 10318.2865,852.091061 C10411.2868,746.188744 10533.1873,604.28564 10688.2879,577.285049 C10761.5882,564.484769 10942.1889,540.784251 11104.1896,542.784295 C11196.0899,540.784251 11255.2902,550.78447 11347.6905,581.285137 C11469.691,629.986202 11539.4913,669.387064 11638.5917,757.288987 C11661.7918,777.789436 11741.2921,880.991694 11766.6922,923.092615 C11822.2924,1024.99484 11819.8924,1084.99616 11829.5924,1182.19828 C11843.4925,1322.60135 11834.4925,1458.90434 11786.3923,1593.70729 C11753.8921,1684.90928 11735.6921,1781.11139 11710.692,1875.01344 C11672.7918,2017.41655 11631.2917,2157.41962 11559.7914,2288.62249 C11489.6911,2417.42531 11442.5909,2559.22841 11367.1906,2684.23114 C11319.3904,2763.53288 11246.0901,2833.2344 11170.4898,2888.63561 C10984.6891,3024.83859 10783.7883,3018.03844 10581.8875,2921.13632 C10526.2873,2894.53574 10465.787,2871.83525 10419.7869,2832.9344 C10293.5864,2726.03206 10210.486,2591.32911 10180.4859,2425.22548 C10164.2858,2335.22351 10121.2857,2080.61794 10116.7857,2048.21723 Z M11226.4901,1364.90228 C11219.79,1258.19995 11192.8899,1182.19828 11164.2898,1106.69663 C11126.9897,1008.19448 11040.8893,998.494264 10974.4891,1079.09603 C10950.689,1107.89666 10932.7889,1141.7974 10913.4888,1174.09811 C10807.1884,1352.202 10735.9881,1556.40647 10741.6881,1762.01097 C10743.4881,1829.61245 10761.9882,1998.91615 10766.0882,2019.6166 C10784.1883,2111.1186 10794.2883,2159.81967 10815.1884,2250.82166 C10818.8884,2266.82201 10837.3885,2307.92291 10860.0886,2312.42301 C10882.0887,2312.42301 10919.2888,2280.1223 10932.8889,2258.42183 C10944.9889,2238.02138 11040.2893,2074.2178 11121.6896,1889.91377 C11196.9899,1736.3104 11240.9901,1547.40627 11226.4901,1364.90228 Z M6255.24034,2328.74337 L6255.04034,2699.25147 C6257.24035,2804.65378 6230.74024,2894.55574 6211.14016,2917.35624 C6203.84013,2925.85643 6147.23991,2997.758 6050.63953,3012.85833 C6002.13933,3020.4585 5912.13898,3012.85833 5889.63889,3006.55819 C5797.13852,2980.95763 5744.23831,2938.55671 5680.83806,2861.45502 C5578.33765,2736.9523 5493.43732,2616.54966 5388.2369,2494.34699 C5280.63647,2369.34425 5172.13604,2245.04153 5066.13562,2118.63877 C5034.23549,2080.63794 5009.6354,2036.63698 4981.13528,1995.73608 C4971.43524,1981.93578 4960.0352,1969.3355 4938.73511,1942.83492 C4923.03505,1982.43579 4919.33504,2030.93685 4918.83504,2067.03764 C4917.73503,2151.73949 4923.13505,2236.54135 4922.93505,2321.3432 C4922.63505,2441.44583 4921.13505,2561.64846 4916.93503,2681.65109 C4915.23502,2729.25213 4920.73504,2827.25427 4890.73492,2874.2553 C4861.53481,2915.5562 4822.73465,2951.65699 4736.73431,2971.45743 C4632.0339,2990.65785 4570.53365,2972.65745 4482.4333,2942.35679 C4436.63312,2922.15635 4394.53296,2885.25554 4377.83289,2813.75398 C4364.33284,2755.75271 4357.43281,2674.85094 4356.53281,2657.45056 C4348.23277,2500.84713 4349.33278,2464.94635 4342.33275,2308.24292 C4340.03274,2258.64183 4345.23276,2060.33749 4343.63275,2010.73641 C4339.13274,1876.03346 4350.43278,1885.33367 4345.63276,1750.63072 L4353.73279,1460.32437 C4356.83281,1305.32098 4361.33282,1344.22183 4373.13287,1202.91874 C4374.53288,1187.11839 4386.43292,1089.91626 4385.23292,1074.21592 C4391.83295,939.412972 4456.5332,842.810858 4579.53369,814.510239 C4590.93374,811.81018 4647.63396,800.309928 4748.93436,799.609913 C4942.03513,793.609782 5014.43542,928.81274 5117.53582,1092.71633 C5158.93599,1158.31776 5245.33633,1336.32165 5287.6365,1410.02327 C5343.13672,1508.92543 5303.33656,1439.92392 5394.63692,1604.02751 C5464.8372,1727.53021 5494.13732,1773.63122 5559.73758,1858.73308 C5572.33763,1875.13344 5670.73802,2000.03617 5703.33815,2015.0365 C5709.13817,1931.63468 5714.63819,1859.6331 5718.93821,1787.63153 C5730.43826,1596.52735 5742.2383,1405.42317 5752.43834,1214.31899 C5763.33839,1009.71451 5760.13837,980.813877 5772.33842,776.309403 C5777.33844,692.807577 5783.63847,508.903553 5792.2385,426.00174 C5799.03853,359.700289 5790.13849,269.998327 5857.73876,208.096973 C5947.33912,129.195247 6029.53944,135.195378 6082.33965,138.395448 C6151.23992,141.995527 6183.04005,158.59589 6257.44035,224.697336 C6304.84053,277.098482 6330.34064,366.700443 6326.84062,422.501663 C6321.0406,538.704205 6317.64058,647.506586 6306.94054,747.508773 C6299.44051,808.810114 6284.34045,990.614092 6281.94044,1093.51634 C6279.24043,1204.01876 6276.24042,1304.32095 6276.44042,1329.1215 C6276.94042,1400.32305 6273.34041,1643.02836 6270.0404,1686.72932 C6269.44039,1694.12948 6257.94035,1992.43601 6259.44035,2055.43739 C6260.04036,2083.03799 6255.24034,2301.14276 6255.24034,2328.74337 Z M6476.86122,2847.48471 C6434.06105,2781.08326 6433.46104,2675.78096 6460.86115,2530.27777 C6485.86125,2376.57441 6539.86147,2201.47058 6577.66162,2057.26743 C6607.66174,1942.56492 6659.76194,1755.16082 6697.66209,1576.45691 C6761.46235,1275.05031 6805.26252,1088.54623 6849.9627,849.841012 C6862.36275,783.639564 6879.96282,717.938126 6893.36287,651.636676 C6922.96299,505.53348 6943.76307,358.530264 6974.46319,237.027606 C6993.76327,160.525932 7036.56344,116.324965 7094.16367,94.924497 C7145.66387,75.724077 7222.36417,63.0237991 7299.06448,62.7237926 C7419.06495,63.9238188 7449.56507,72.3240026 7541.46544,94.924497 C7588.86563,106.524751 7613.56573,133.325337 7638.06582,158.425886 C7695.26605,220.127236 7700.86607,263.628188 7725.66617,331.529673 C7753.16628,407.031325 7764.86633,489.033119 7776.86637,569.134871 C7787.96642,643.13649 7803.86648,753.538905 7812.76652,832.740638 C7833.7666,1013.24459 7860.3667,1125.44704 7893.76684,1291.25067 C7941.26703,1527.65584 7968.86713,1710.45984 8015.66732,1946.96501 C8026.66736,2002.76623 8048.16745,2113.86866 8058.56749,2169.86989 C8083.06759,2301.67277 8116.56772,2432.07563 8135.06779,2564.57852 C8144.36783,2630.97998 8157.46788,2685.78118 8171.56794,2827.38427 C8185.768,2950.58697 8144.66783,3021.38852 8073.76755,3057.2893 C7995.96724,3089.49001 7965.86712,3091.39005 7894.06684,3089.79001 C7777.96638,3082.28985 7733.0662,3023.78857 7714.16612,2983.08768 C7672.46596,2888.58561 7660.26591,2851.68481 7639.06583,2783.78332 C7621.66576,2727.7821 7597.16566,2629.37994 7594.76565,2618.3797 C7575.56557,2526.57769 7555.36549,2434.87569 7539.56543,2342.47367 C7528.16539,2210.77078 7526.36538,2227.47115 7411.56492,2254.17173 C7339.96464,2270.7721 7270.06436,2294.47262 7200.56409,2318.07313 C7134.36382,2340.47362 7117.66376,2412.07519 7099.56369,2488.97687 C7086.46363,2577.47881 7010.06333,2809.98389 6975.16319,2851.3848 C6954.36311,2875.88534 6945.86308,2892.18569 6917.86297,2912.98615 C6874.36279,2945.28685 6813.26255,2980.38762 6677.16201,2967.78735 C6558.16154,2956.7871 6501.56131,2885.98556 6476.86122,2847.48471 Z M7457.56511,1688.85937 C7459.76512,1663.45881 7451.56508,1620.45787 7450.76508,1613.15771 C7449.86508,1605.85755 7447.46507,1590.25721 7445.86506,1579.05696 C7444.76506,1570.75678 7413.56493,1249.54976 7409.96492,1213.44897 C7408.66491,1201.4487 7401.26488,1138.24732 7398.46487,1103.24656 C7396.36486,1076.54597 7391.06484,1062.04565 7376.36478,1056.74554 C7367.96475,1053.64547 7347.86467,1058.94559 7339.56464,1072.64589 C7318.26455,1107.44665 7305.3645,1198.34864 7299.46448,1238.64952 C7290.46444,1300.45087 7263.06434,1452.05419 7251.96429,1515.85558 C7238.26424,1594.95731 7231.36421,1661.05876 7224.96418,1690.3594 C7216.16415,1730.56028 7219.06416,1751.76074 7243.66426,1761.26095 C7270.16436,1771.56118 7289.96444,1766.46106 7299.76448,1764.56102 C7316.96455,1761.06095 7325.36458,1756.86085 7337.66463,1753.86079 C7368.96476,1746.16062 7383.06481,1740.96051 7410.06492,1728.76024 C7418.36495,1725.06016 7455.8651,1709.25981 7457.56511,1688.85937 Z M9780.80432,1410.47328 C9730.40412,1537.47606 9712.90405,1617.57781 9725.7041,1683.87926 C9733.70414,1725.88018 9779.30432,1767.58109 9823.30449,1835.18257 C9883.90473,1928.0846 9932.40492,2041.48708 9947.30498,2121.88884 C9966.70506,2227.39115 9972.10508,2303.49281 9952.805,2435.19569 C9928.80491,2598.99928 9891.70476,2652.60045 9850.8046,2735.20226 C9798.50439,2840.90457 9691.10397,2969.60739 9553.40342,3055.30926 C9390.80278,3156.31147 9318.00249,3170.81179 9134.90176,3183.31206 C8962.00107,3195.11232 8752.40024,3180.91201 8640.5998,3150.21134 C8520.99933,3117.41062 8450.69905,3041.80896 8400.39885,2974.10748 C8332.09858,2882.20547 8333.59858,2765.50292 8336.79859,2632 C8340.69861,2524.19764 8381.19877,2326.59332 8395.39883,2211.09079 C8413.2989,2064.68759 8420.89893,2014.28649 8432.19897,1891.6838 C8447.39903,1752.88077 8454.39906,1754.78081 8450.39905,1588.57717 C8446.59903,1429.37369 8404.99886,1206.16881 8435.39899,949.8632 C8452.99906,800.559934 8514.0993,653.556718 8646.99982,540.354242 C8725.00013,474.052791 8822.50052,405.551292 8913.30088,370.150518 C9015.60129,330.249645 9071.10151,306.049116 9223.30211,268.648298 C9338.60257,240.347678 9424.40291,231.647488 9573.3035,230.147455 C9689.70396,228.847427 9824.3045,254.947998 9907.90483,375.350632 C9984.80513,486.153056 9987.20514,567.454834 9992.00516,649.05662 C9992.10516,770.65928 9967.90506,890.061892 9915.50486,1044.36527 C9854.60462,1203.16874 9852.00461,1230.96935 9780.80432,1410.47328 Z M9415.20287,848.260977 C9382.20274,784.35958 9275.80232,822.160406 9203.70203,848.660986 C9144.0018,870.661468 9114.50168,880.461682 9070.90151,916.262465 C9031.40135,948.863178 8996.50121,1035.76508 8985.40117,1095.46639 C8975.20113,1150.26758 8963.80108,1241.36958 8981.50115,1322.57135 C8992.20119,1372.17244 9029.10134,1395.47295 9096.50161,1395.47295 C9164.90188,1395.77296 9199.10202,1375.1725 9248.40221,1325.27141 C9311.80246,1264.97009 9323.00251,1233.2694 9372.2027,1128.96712 C9453.50302,956.563347 9443.80299,907.462273 9415.20287,848.260977 Z M9304.60243,2420.59537 C9341.00258,2331.19342 9363.90267,2138.78921 9320.1025,2047.78722 C9282.50235,1969.48551 9237.40217,1915.38432 9128.90174,1896.38391 C9072.50151,1880.18355 9044.0014,1908.88418 9018.3013,1932.6847 C8998.70122,1950.7851 8974.90113,1993.78604 8967.9011,2050.68728 C8958.30106,2127.98897 8953.80104,2165.5898 8943.801,2264.59196 C8933.80096,2363.29412 8923.20092,2439.39579 8951.10103,2499.99711 C8979.80115,2564.89853 9095.7016,2550.89823 9163.80188,2538.49795 C9213.80207,2529.39776 9266.70228,2513.79741 9304.60243,2420.59537 Z" id="Combined-Shape" fill="#000000"></path>
    </g>
</svg>